<svg id="Layer_1" data-name="Layer 1" xmlns="http://www.w3.org/2000/svg" viewBox="0 0 838.35 968.03"><defs><style>.cls-1{fill:#fab03a;}.cls-2{fill:#ec1d22;}.cls-3{fill:#29cde2;}.cls-4{fill:#008cba;}.cls-5{fill:#f7b633;}.cls-6{fill:#55ecff;}</style></defs><polygon class="cls-1" points="169.01 727.66 82.72 677.86 82.72 677.82 169.01 628.02 169.01 727.66"/><polygon class="cls-1" points="335.57 823.24 247.9 772.64 247.9 772.6 335.57 722 335.57 823.24"/><polygon class="cls-2" points="755.18 486.67 668.83 436.83 668.83 436.79 755.18 386.95 755.18 486.67"/><polygon class="cls-1" points="585.39 191.58 674.19 242.83 674.19 242.87 585.39 294.12 585.39 191.58"/><polygon class="cls-2" points="586.85 96.81 586.85 290.44 503.01 338.83 503.01 145.2 586.85 96.81"/><polygon class="cls-1" points="503.01 145.2 503.01 338.83 419.18 387.22 419.18 96.81 503.01 145.2"/><polygon class="cls-2" points="419.18 96.81 419.18 387.22 251.51 290.44 167.67 242.02 335.34 145.24 419.18 96.81"/><polygon class="cls-3" points="838.35 242.02 754.52 290.41 754.52 290.44 586.85 387.22 503.01 435.64 419.18 484.03 335.34 435.64 251.51 387.22 83.83 290.44 83.83 290.41 0 242.02 167.67 145.24 167.67 145.2 335.34 48.42 419.18 0 503.01 48.39 503.01 48.42 586.85 96.81 503.01 145.2 419.18 96.81 335.34 145.24 167.67 242.02 251.51 290.44 419.18 387.22 586.85 290.44 586.85 290.41 670.68 242.02 586.85 193.63 670.68 145.2 754.52 193.63 838.35 242.02"/><polygon class="cls-2" points="167.67 338.83 167.67 629.24 83.83 677.63 83.83 290.44 167.67 338.83"/><polygon class="cls-4" points="419.18 484.03 419.18 968.03 251.51 871.25 167.67 822.83 0 726.05 0 242.02 83.83 290.41 83.83 677.63 167.67 726.05 167.67 338.83 251.51 387.22 251.51 774.44 335.34 822.83 335.34 435.64 419.18 484.03"/><polygon class="cls-2" points="335.34 435.64 335.34 726.05 251.51 774.44 251.51 387.22 335.34 435.64"/><polygon class="cls-5" points="754.52 484.03 670.68 532.42 586.85 580.85 503.01 629.24 503.01 532.42 586.85 484.03 670.68 435.64 754.52 484.03"/><path class="cls-6" d="M875.52,356.37v0C780.37,411.31,634.22,495.72,540.18,550v484L624,985.61V792L791.68,695.2l83.84,48.39v96.82L959.35,792V695.2l-83.83-48.39v0l83.83-48.39V308Zm0,193.63C800.82,593.1,698.7,652.11,624,695.2V598.39l167.67-96.78v0l83.84-48.39Z" transform="translate(-121 -65.97)"/><polygon class="cls-2" points="754.52 677.63 754.52 774.44 670.68 726.05 586.85 677.63 670.68 629.24 754.52 677.63"/></svg>